<?xml version="1.0" encoding="UTF-8" standalone="no"?>
<!-- Created with Inkscape (http://www.inkscape.org/) -->

<svg
   xmlns:dc="http://purl.org/dc/elements/1.1/"
   xmlns:cc="http://creativecommons.org/ns#"
   xmlns:rdf="http://www.w3.org/1999/02/22-rdf-syntax-ns#"
   xmlns:svg="http://www.w3.org/2000/svg"
   xmlns="http://www.w3.org/2000/svg"
   xmlns:sodipodi="http://sodipodi.sourceforge.net/DTD/sodipodi-0.dtd"
   xmlns:inkscape="http://www.inkscape.org/namespaces/inkscape"
   width="210mm"
   height="297mm"
   viewBox="0 0 744.09448819 1052.3622047"
   id="svg2"
   version="1.1"
   inkscape:version="0.91 r13725"
   sodipodi:docname="GARANHAO.svg">
  <defs
     id="defs4" />
  <sodipodi:namedview
     id="base"
     pagecolor="#ffffff"
     bordercolor="#666666"
     borderopacity="1.0"
     inkscape:pageopacity="0.0"
     inkscape:pageshadow="2"
     inkscape:zoom="0.57485734"
     inkscape:cx="412.02267"
     inkscape:cy="783.8307"
     inkscape:document-units="px"
     inkscape:current-layer="layer1"
     showgrid="false"
     inkscape:window-width="1440"
     inkscape:window-height="838"
     inkscape:window-x="-8"
     inkscape:window-y="-8"
     inkscape:window-maximized="1" />
  <metadata
     id="metadata7">
    <rdf:RDF>
      <cc:Work
         rdf:about="">
        <dc:format>image/svg+xml</dc:format>
        <dc:type
           rdf:resource="http://purl.org/dc/dcmitype/StillImage" />
        <dc:title></dc:title>
      </cc:Work>
    </rdf:RDF>
  </metadata>
  <g
     inkscape:label="Camada 1"
     inkscape:groupmode="layer"
     id="layer1">
    <path
       style="fill:#806600;fill-rule:evenodd;stroke:none;stroke-width:1.31469882px;stroke-linecap:butt;stroke-linejoin:miter;stroke-opacity:1"
       d="m 303.21035,144.32367 195.66358,0 82.67208,474.91932 -363.18332,0 z"
       id="rect3336"
       inkscape:connector-curvature="0"
       sodipodi:nodetypes="ccccc" />
    <path
       style="fill:#554400;stroke:none;stroke-width:0.60498238"
       d="m 302.37255,69.03647 42.2471,37.40452 -42.2471,38.02276 93.92087,0 9.08868,0 93.91891,0 -42.24709,-38.02276 42.24709,-37.40452 -93.91891,0 -9.08868,0 -93.92087,0 z"
       id="rect3339"
       inkscape:connector-curvature="0" />
    <path
       style="fill:#806600;fill-rule:evenodd;stroke:none;stroke-width:1px;stroke-linecap:butt;stroke-linejoin:miter;stroke-opacity:1"
       d="m 302.14592,69.131213 42.56833,37.288537 -16.49936,14.84942 z"
       id="path3349"
       inkscape:connector-curvature="0" />
    <path
       style="fill:#554400;fill-rule:evenodd;stroke:none;stroke-width:1px;stroke-linecap:butt;stroke-linejoin:miter;stroke-opacity:1"
       d="m 344.78881,106.43285 15.03078,37.40995 -57.45099,0.33402 z"
       id="path3361"
       inkscape:connector-curvature="0" />
    <path
       inkscape:connector-curvature="0"
       id="path3363"
       d="m 498.07473,69.131213 -42.56833,37.288537 16.49936,14.84942 z"
       style="fill:#806600;fill-rule:evenodd;stroke:none;stroke-width:1px;stroke-linecap:butt;stroke-linejoin:miter;stroke-opacity:1" />
    <path
       inkscape:connector-curvature="0"
       id="path3365"
       d="m 455.43184,106.43285 -15.03078,37.40995 57.45099,0.33402 z"
       style="fill:#554400;fill-rule:evenodd;stroke:none;stroke-width:1px;stroke-linecap:butt;stroke-linejoin:miter;stroke-opacity:1" />
    <path
       style="fill:#554400;fill-opacity:1;stroke:none;stroke-width:0.91824019"
       id="path3369"
       sodipodi:type="arc"
       sodipodi:cx="346.87231"
       sodipodi:cy="199.44328"
       sodipodi:rx="17.54961"
       sodipodi:ry="13.824262"
       sodipodi:start="0"
       sodipodi:end="6.2635075"
       sodipodi:open="true"
       d="m 364.42192,199.44328 a 17.54961,13.824262 0 0 1 -17.46327,13.8241 17.54961,13.824262 0 0 1 -17.6351,-13.68808 17.54961,13.824262 0 0 1 17.28977,-13.95877 17.54961,13.824262 0 0 1 17.80521,13.55074" />
    <path
       d="m 477.08608,199.44328 a 17.54961,13.824262 0 0 1 -17.46328,13.8241 17.54961,13.824262 0 0 1 -17.63509,-13.68808 17.54961,13.824262 0 0 1 17.28976,-13.95877 17.54961,13.824262 0 0 1 17.80521,13.55074"
       sodipodi:open="true"
       sodipodi:end="6.2635075"
       sodipodi:start="0"
       sodipodi:ry="13.824262"
       sodipodi:rx="17.54961"
       sodipodi:cy="199.44328"
       sodipodi:cx="459.53647"
       sodipodi:type="arc"
       id="path3371"
       style="fill:#554400;fill-opacity:1;stroke:none;stroke-width:0.91824019" />
    <path
       inkscape:connector-curvature="0"
       id="path3385"
       d="m 332.88088,202.89032 a 70.196272,42.514425 0 0 0 -2.05317,10.50508 70.196272,42.514425 0 0 0 70.53804,42.09826 70.196272,42.514425 0 0 0 69.84955,-42.51443 l -0.0122,-0.83443 a 70.196272,42.514425 0 0 0 -2.04821,-9.25448 l -10.11531,0 a 60.377628,36.567756 0 0 1 2.34683,9.37135 l 0.0149,0.71756 a 60.377628,36.567756 0 0 1 -60.08224,36.56688 60.377628,36.567756 0 0 1 -60.67197,-36.20811 60.377628,36.567756 0 0 1 2.36903,-10.44768 l -10.13502,0 z"
       style="fill:#554400;fill-opacity:1;stroke:none;stroke-width:1.10475075" />
    <path
       style="fill:#e6e6e6;fill-opacity:1;stroke:none;stroke-width:1.06403708"
       d="m 335.27468,201.71622 a 68.049403,40.682808 0 0 0 -1.99037,10.0525 68.049403,40.682808 0 0 0 68.38072,40.28457 68.049403,40.682808 0 0 0 67.71329,-40.68282 l -0.012,-0.79847 a 68.049403,40.682808 0 0 0 -1.98558,-8.85578 l -9.80593,0 a 58.531049,34.992336 0 0 1 2.27505,8.9676 l 0.0144,0.68665 a 58.531049,34.992336 0 0 1 -58.24468,34.99151 58.531049,34.992336 0 0 1 -58.81642,-34.64819 58.531049,34.992336 0 0 1 2.29658,-9.99757 l -9.82505,0 z"
       id="path3375"
       inkscape:connector-curvature="0" />
  </g>
</svg>
